<svg width="121" height="121" viewBox="0 0 121 121" fill="none" xmlns="http://www.w3.org/2000/svg">
    <path
        d="M51.9583 88.2083L94.5521 45.6146L86.0938 37.1562L51.9583 71.2917L34.7396 54.0729L26.2812 62.5312L51.9583 88.2083ZM60.4167 120.833C52.059 120.833 44.2049 119.247 36.8542 116.076C29.5035 112.904 23.1094 108.599 17.6719 103.161C12.2344 97.724 7.92969 91.3299 4.75781 83.9792C1.58594 76.6285 0 68.7743 0 60.4167C0 52.059 1.58594 44.2049 4.75781 36.8542C7.92969 29.5035 12.2344 23.1094 17.6719 17.6719C23.1094 12.2344 29.5035 7.92969 36.8542 4.75781C44.2049 1.58594 52.059 0 60.4167 0C68.7743 0 76.6285 1.58594 83.9792 4.75781C91.3299 7.92969 97.724 12.2344 103.161 17.6719C108.599 23.1094 112.904 29.5035 116.076 36.8542C119.247 44.2049 120.833 52.059 120.833 60.4167C120.833 68.7743 119.247 76.6285 116.076 83.9792C112.904 91.3299 108.599 97.724 103.161 103.161C97.724 108.599 91.3299 112.904 83.9792 116.076C76.6285 119.247 68.7743 120.833 60.4167 120.833ZM60.4167 108.75C73.9097 108.75 85.3385 104.068 94.7031 94.7031C104.068 85.3385 108.75 73.9097 108.75 60.4167C108.75 46.9236 104.068 35.4948 94.7031 26.1302C85.3385 16.7656 73.9097 12.0833 60.4167 12.0833C46.9236 12.0833 35.4948 16.7656 26.1302 26.1302C16.7656 35.4948 12.0833 46.9236 12.0833 60.4167C12.0833 73.9097 16.7656 85.3385 26.1302 94.7031C35.4948 104.068 46.9236 108.75 60.4167 108.75Z"
        fill="#22C55D" />
</svg>